<svg xmlns="http://www.w3.org/2000/svg" width="976" height="353" viewBox="0 0 976 353">
    <g fill="none" fill-rule="evenodd">
        <text fill="#2B3836" font-family="Graphik Web" font-size="24" font-weight="500" transform="translate(-1)">
            <tspan x="798" y="160">Blocks</tspan>
        </text>
        <path fill="#2B3836" d="M843.984 20.026l-27.679-7.429 16.996-4.561.27-.036h.926l.271.036 35.102 9.42.573.384 2.335 3.049.222.653v30.231l-.161.564-2.024 3.25 1.886 1.978.299.749v32.248l-.222.653-1.88 2.454-.572.384-27.146 7.285v3.028l-.862 1.126-9.346 2.508h-.55l-34.56-9.275-.862-1.126V15.076l2.087.56 33.405 8.965v81.254l.205.055 8.397-2.253v-3.923l28.359-7.61 1.46-1.907v-31.5l-2.726-2.86 2.726-4.377V21.887l-1.916-2.501-.361-.097-23.958 6.43v-5.081l-.694-.612zm-1.575 60.735l21.441 5.755-.068.089-20.624 5.535-.749-.575V80.76zm0-2.344V67.018l.396-.516 20.624-5.535.748.575V84.26l-21.768-5.842zm0-29.67l21.136 5.673-20.387 5.472-.749-.575v-10.57zm0-2.343V34.77l.396-.516 20.624-5.535.748.575v22.952l-21.768-5.842zM804.44 11.29l36.088 9.685-7.078 1.9-35.758-9.597.171-.223 6.577-1.765z"/>
        <text fill="#2B3836" font-family="Graphik Web" font-size="48" font-weight="500" transform="translate(-1)">
            <tspan x="692" y="71">=</tspan>
        </text>
        <text fill="#2B3836" font-family="Graphik Web" font-size="16" font-weight="400" transform="translate(-1)">
            <tspan x="536" y="201">Library of reusable UI and </tspan> <tspan x="536" y="229">code components that are </tspan> <tspan x="536" y="257">used to solve a variety of </tspan> <tspan x="536" y="285">design problems and to </tspan> <tspan x="536" y="313">prevent inconsistent user </tspan> <tspan x="536" y="341">experiences</tspan>
        </text>
        <text fill="#2B3836" font-family="Graphik Web" font-size="16" font-weight="400" transform="translate(-1)">
            <tspan x="798" y="201">Design system for CBRE </tspan> <tspan x="798" y="229">Build</tspan>
        </text>
        <text fill="#2B3836" font-family="Graphik Web" font-size="24" font-weight="500" transform="translate(-1)">
            <tspan x="536" y="160">Toolbox</tspan>
        </text>
        <g fill-rule="nonzero">
            <path fill="#FDFEFD" stroke="#2B3836" stroke-linecap="square" stroke-linejoin="bevel" stroke-width="2" d="M535.134 66.715L573.667 47l-.134 31.006L535 97.721z"/>
            <path fill="#2B3836" stroke="#2B3836" stroke-linecap="square" stroke-linejoin="bevel" stroke-width="2" d="M574 47.109L590.762 28l17.483 28.2v31L574 78.11z"/>
            <path fill="#FDFEFD" d="M572.09 53.233L574.454 52l-.002 20.138L572 73.364z"/>
            <path fill="#FDFEFD" stroke="#2B3836" stroke-linecap="square" stroke-linejoin="bevel" stroke-width="2" d="M551.134 55.11L590.667 34l3.91 6.019-39.532 21.11zM569 76l39.253-19.715v31L569 107z"/>
            <path fill="#2B3836" stroke="#2B3836" stroke-linecap="square" stroke-linejoin="bevel" stroke-width="2" d="M535 67.109L551.762 48l17.483 28.2v31L535 98.11z"/>
        </g>
        <text fill="#2B3836" font-family="Graphik Web" font-size="48" font-weight="500" transform="translate(-1)">
            <tspan x="429" y="71">+</tspan>
        </text>
        <text fill="#2B3836" font-family="Graphik Web" font-size="16" font-weight="400" transform="translate(-1)">
            <tspan x="269" y="201">Documentation describing </tspan> <tspan x="269" y="229">how products should look </tspan> <tspan x="269" y="257">and feel, proper use cases </tspan> <tspan x="269" y="285">for patterns, editorial and </tspan> <tspan x="269" y="313">implementation </tspan> <tspan x="269" y="341">guidelines, etc</tspan>
        </text>
        <text fill="#2B3836" font-family="Graphik Web" font-size="24" font-weight="500" transform="translate(-1)">
            <tspan x="269" y="160">Docs</tspan>
        </text>
        <g fill-rule="nonzero" stroke="#2B3836" stroke-linecap="square" stroke-linejoin="bevel" stroke-width="2">
            <path fill="#FDFEFD" d="M269 19l40-11v79l-40 11z"/>
            <path fill="#2B3836" d="M268.991 19.029l10.457 1.951v79l-10.457-1.951z"/>
            <path fill="#FDFEFD" d="M279 21l40-11v79l-40 11z"/>
            <g>
                <path fill="#FDFEFD" d="M283 23l40-11v79l-40 11z"/>
                <path fill="#2B3836" d="M282.991 23.029l10.457 1.951v79l-10.457-1.951z"/>
                <path fill="#FDFEFD" d="M293 25l40-11v79l-40 11z"/>
            </g>
            <g>
                <path fill="#FDFEFD" d="M297 27l40-11v79l-40 11z"/>
                <path fill="#2B3836" d="M296.991 27.029l10.457 1.951v79l-10.457-1.951z"/>
                <path fill="#FDFEFD" d="M307 29l40-11v79l-40 11z"/>
            </g>
        </g>
        <text fill="#2B3836" font-family="Graphik Web" font-size="48" font-weight="500" transform="translate(-1)">
            <tspan x="161" y="71">+</tspan>
        </text>
        <text fill="#2B3836" font-family="Graphik Web" font-size="16" font-weight="400" transform="translate(-1)">
            <tspan x="2" y="201">Shared approach, </tspan> <tspan x="2" y="229">language, and </tspan> <tspan x="2" y="257">communication between </tspan> <tspan x="2" y="285">design, engineering, and </tspan> <tspan x="2" y="313">product teams</tspan>
        </text>
        <text fill="#2B3836" font-family="Graphik Web" font-size="24" font-weight="500" transform="translate(-1)">
            <tspan x="2" y="160">Talks</tspan>
        </text>
        <g fill="#2B3836" fill-rule="nonzero">
            <path d="M14.651 50.108c1.587.212 3.311.092 5.097-.372l1.597-.416 1.212 1.247c-.458 1.578-1.365 3.126-2.663 4.649l-.3.239C13.11 58.822 4.083 61.659 1.205 61.99c-.095.01-.095.01-.243.007-.205-.01-.205-.01-.652-.286-.378-.706-.378-.706-.204-1.183.147-.231.147-.231.241-.32.126-.117.275-.214.535-.365.259-.15 1.842-1.017 1.744-.963 2.17-1.198 3.966-2.286 5.742-3.548 2.24-1.59 4.064-3.211 5.367-4.854l.916-.37zm-6.634-1.279C3.13 47.611 0 43.623 0 38.383v-8.556c0-7.633 6.591-15.453 14.748-17.576l45-11.713C64.893-.8 69.668.408 72.5 3.698l-1 1.623c-1.88-.47-4.014-.429-6.247.153l-45 11.712C12.945 19.088 7 26.141 7 32.827v8.556c0 2.309.71 4.305 2.017 5.824l-1 1.622z"/>
            <path d="M12.742 61.172a79.151 79.151 0 0 0 6.683-2.494c8.16-3.486 14.095-7.788 16.514-12.793l.648-.532 28.161-7.33C72.055 36.12 78 29.069 78 22.382v-8.556c0-6.468-5.618-10.208-12.748-8.352l-45 11.712C12.945 19.088 7 26.141 7 32.827v8.556c0 6.468 5.618 10.209 12.748 8.353l1.597-.416 1.212 1.247c-.957 3.298-3.81 6.4-8.03 9.396-.59.419-1.182.819-1.785 1.21zm7.47-.655c-5.402 2.308-12.067 4.25-14.007 4.473-.095.01-.095.01-.243.007-.205-.01-.205-.01-.652-.286-.378-.706-.378-.706-.204-1.183.147-.231.147-.231.241-.32.126-.117.275-.214.535-.365.259-.15 1.842-1.017 1.744-.963 2.17-1.198 3.966-2.286 5.742-3.548 3.064-2.176 5.32-4.384 6.528-6.572C11.722 53.708 5 49.123 5 41.383v-8.556c0-7.633 6.591-15.453 14.748-17.576l45-11.713C73.082 1.368 80 5.975 80 13.826v8.556c0 7.634-6.591 15.453-14.748 17.576L37.53 47.174c-2.792 5.36-8.97 9.777-17.319 13.343zM64.121 96.775c.57.164 1.175.305 1.814.426 2.095.395 3.534.49 6.754.579.54.015.797.027.998.055.091.012.172.028.256.053.255.078.456.191.626.495.3.538.086 1.022-.266 1.301a1.227 1.227 0 0 1-.322.183c-.714.288-3.286.986-5.89 1.54l-.543-.037c-1.973-.703-3.507-1.693-4.506-3.037l1.08-1.558zm-56.12 8.843C3.126 104.4 0 100.43 0 95.218V86.7c0-7.604 6.592-15.39 14.75-17.504l45-11.66c5.153-1.336 9.935-.125 12.764 3.164l-1 1.623c-1.885-.471-4.025-.431-6.263.149l-45 11.66C12.944 76.027 7 83.047 7 89.7v8.517c0 2.29.704 4.27 2.002 5.779l-1 1.622z"/>
            <path d="M70.564 102.166c-4.369-.824-7.382-2.523-8.41-5.514l.696-1.292 1.9-.493C72.055 92.974 78 85.954 78 79.3v-8.517c0-6.436-5.618-10.16-12.75-8.311l-45 11.66C12.945 76.027 7 83.047 7 89.7v8.517c0 6.436 5.618 10.16 12.75 8.311l27.857-7.218 1.09.423c2.28 3.513 8.07 4.691 16.09 3.946 2.558-.238 5.207-.662 7.788-1.207a29.689 29.689 0 0 1-2.01-.306zm.371-1.965c2.095.395 3.534.49 6.754.579.54.015.797.027.998.055.091.012.172.028.256.053.255.078.456.191.626.495.3.538.086 1.022-.266 1.301a1.227 1.227 0 0 1-.322.183c-1.929.779-8.598 2.3-14.01 2.803-8.294.771-14.517-.379-17.528-4.252l-27.192 7.046C11.918 110.624 5 106.038 5 98.217V89.7c0-7.604 6.592-15.39 14.75-17.504l45-11.66C73.081 58.376 80 62.962 80 70.783V79.3c0 7.604-6.592 15.39-14.75 17.504l-.71.184c1.067 1.571 3.274 2.624 6.395 3.213z"/>
        </g>
    </g>
</svg>
