<svg xmlns="http://www.w3.org/2000/svg" width="144" height="142" viewBox="0 0 144 142">
    <g fill="none" fill-rule="evenodd">
        <g>
            <rect width="143" height="48" x=".5" y=".5" fill="#D9E1E0" fill-rule="nonzero" stroke="#FDFEFD" rx="14"/>
            <path fill="#6F6BF8" fill-rule="nonzero" stroke="#FDFEFD" d="M103.59 48.5l1.485-3.215 1.619-3.505.19-.41.427.148c1.07.371 2.382-.177 3.04-1.22.7-1.106.443-2.36-.97-3.358l-.34-.24.174-.378 1.56-3.38 1.398-3.024c-1.503-1.293-2.302-3.237-1.938-4.727.43-1.76 2.213-2.311 4.741-1.343l1.746-3.78a639.049 639.049 0 0 1-9.606-6.82l-.397-.288.279-.403c1.67-2.409 1.075-4.892-1.061-6.316-2.085-1.389-4.68-1.114-6.087.935l-.29.422-.415-.3A1937.671 1937.671 0 0 0 89.7.5H14C6.544.5.5 6.544.5 14v21c0 7.456 6.044 13.5 13.5 13.5h89.59z"/>
            <path fill="#D9E1E0" fill-rule="nonzero" stroke="#FDFEFD" d="M62.67 48.5c.213-1.087.24-1.22.498-2.548l.288-1.476.865-4.428.104-.537.526.152c4.35 1.263 6.024-5.257 1.25-6.963l-.406-.144.082-.422c.462-2.365.81-4.157 1.577-8.111.768-3.955 1.116-5.746 1.577-8.112l.117-.598.564.231c2.123.873 4.11-.144 4.735-2.096.656-2.052-.506-4.128-3.41-5.062l-.424-.136.086-.436c.39-2.003.84-4.44 1.35-7.314H14C6.544.5.5 6.544.5 14v21c0 7.456 6.044 13.5 13.5 13.5h24.067l-.054.55c-.446 4.518-4.121 8.005-10.024 10.742-2.256 1.046-4.522 1.852-7.249 2.673l-.112.033c1.014.007 2.23-.007 3.47-.052 3.912-.143 7.952-.548 11.796-1.267 10.6-1.985 17.95-5.973 20.317-12.353l.12-.326h6.34z"/>
            <path fill="#D9E1E0" fill-rule="nonzero" stroke="#FDFEFD" d="M32.398 48.5l-.666-10.45-.027-.42.41-.097c4.99-1.193 4.632-6.847-.445-7.23l-.434-.033-.028-.434-.39-6.116-.042-.656-.399-6.26c-2.368.092-4.042-1.452-4.206-3.57-.165-2.14 1.283-3.898 3.715-4.133L29.338.5H14C6.544.5.5 6.544.5 14v21c0 7.456 6.044 13.5 13.5 13.5h18.398z"/>
            <path fill="#FFF" d="M86.784 27.304v-.608c0-1.264.848-2.048 1.616-2.8.592-.592 1.12-1.12 1.12-1.808 0-.816-.448-1.344-1.424-1.344-.992 0-1.68.704-1.792 1.808h-1.856c.112-2.096 1.6-3.408 3.744-3.408 2.288 0 3.36 1.248 3.36 2.8 0 1.136-.688 1.872-1.408 2.576-.752.72-1.52 1.376-1.568 2.272v.512h-1.792zm.88 3.552c-.72 0-1.312-.544-1.312-1.232 0-.704.592-1.248 1.312-1.248.704 0 1.28.544 1.28 1.248 0 .688-.576 1.232-1.28 1.232z"/>
        </g>
        <g transform="translate(0 79)">
            <rect width="143" height="48" x=".5" y=".5" fill="#D9E1E0" fill-rule="nonzero" stroke="#FDFEFD" rx="14"/>
            <path fill="#6F6BF8" fill-rule="nonzero" stroke="#FDFEFD" d="M103.59 48.5l2.348-5.084 2.31-5c-5.675-4.255-2.833-11.25 4.247-9.195l4.23-9.16-9.259-6.7c-1.172 2.212-4.054 3.113-6.412 2.176-2.743-1.09-3.397-4.026-1.15-7.65l-4.976-3.602L89.698.5H14C6.544.5.5 6.544.5 14v21c0 7.456 6.044 13.5 13.5 13.5h89.59z"/>
            <path fill="#D9E1E0" fill-rule="nonzero" stroke="#FDFEFD" d="M62.67 48.5c.213-1.087.24-1.22.498-2.548l.288-1.476.865-4.428.104-.537.526.152c4.35 1.263 6.024-5.257 1.25-6.963l-.406-.144.082-.422c.462-2.365.81-4.157 1.577-8.111.768-3.955 1.116-5.746 1.577-8.112l.117-.598.564.231c2.123.873 4.11-.144 4.735-2.096.656-2.052-.506-4.128-3.41-5.062l-.424-.136.086-.436c.39-2.003.84-4.44 1.35-7.314H14C6.544.5.5 6.544.5 14v21c0 7.456 6.044 13.5 13.5 13.5h24.067l-.054.55c-.446 4.518-4.121 8.005-10.024 10.742-2.256 1.046-4.522 1.852-7.249 2.673l-.112.033c1.014.007 2.23-.007 3.47-.052 3.912-.143 7.952-.548 11.796-1.267 10.6-1.985 17.95-5.973 20.317-12.353l.12-.326h6.34z"/>
            <path fill="#D9E1E0" fill-rule="nonzero" stroke="#FDFEFD" d="M32.398 48.5l-2.02-31.696c-2.369.092-4.043-1.452-4.207-3.57-.165-2.14 1.283-3.898 3.715-4.133L29.338.5H14C6.544.5.5 6.544.5 14v21c0 7.456 6.044 13.5 13.5 13.5h18.398z"/>
            <path fill="#FFF" d="M86.784 27.304v-.608c0-1.264.848-2.048 1.616-2.8.592-.592 1.12-1.12 1.12-1.808 0-.816-.448-1.344-1.424-1.344-.992 0-1.68.704-1.792 1.808h-1.856c.112-2.096 1.6-3.408 3.744-3.408 2.288 0 3.36 1.248 3.36 2.8 0 1.136-.688 1.872-1.408 2.576-.752.72-1.52 1.376-1.568 2.272v.512h-1.792zm.88 3.552c-.72 0-1.312-.544-1.312-1.232 0-.704.592-1.248 1.312-1.248.704 0 1.28.544 1.28 1.248 0 .688-.576 1.232-1.28 1.232z"/>
        </g>
    </g>
</svg>
