<?xml version="1.0" encoding="UTF-8"?>
<svg width="4px" height="20px" viewBox="0 0 4 20" version="1.1" xmlns="http://www.w3.org/2000/svg" xmlns:xlink="http://www.w3.org/1999/xlink">
    <!-- Generator: Sketch 51.3 (57544) - http://www.bohemiancoding.com/sketch -->
    <title>Combined Shape</title>
    <desc>Created with Sketch.</desc>
    <defs>
        <path d="M2403,1223 C2401.89543,1223 2401,1222.10457 2401,1221 C2401,1219.89543 2401.89543,1219 2403,1219 C2404.10457,1219 2405,1219.89543 2405,1221 C2405,1222.10457 2404.10457,1223 2403,1223 Z M2411,1223 C2409.89543,1223 2409,1222.10457 2409,1221 C2409,1219.89543 2409.89543,1219 2411,1219 C2412.10457,1219 2413,1219.89543 2413,1221 C2413,1222.10457 2412.10457,1223 2411,1223 Z M2395,1223 C2393.89543,1223 2393,1222.10457 2393,1221 C2393,1219.89543 2393.89543,1219 2395,1219 C2396.10457,1219 2397,1219.89543 2397,1221 C2397,1222.10457 2396.10457,1223 2395,1223 Z" id="path-1"></path>
    </defs>
    <g id="Construction" stroke="none" stroke-width="1" fill="none" fill-rule="evenodd">
        <g id="Research" transform="translate(-2401.000000, -1211.000000)">
            <mask id="mask-2" fill="white">
                <use xlink:href="#path-1"></use>
            </mask>
            <use id="Combined-Shape" fill="#009F6F" transform="translate(2403.000000, 1221.000000) rotate(90.000000) translate(-2403.000000, -1221.000000) " xlink:href="#path-1"></use>
        </g>
    </g>
</svg>